<?xml version="1.0" standalone="no"?>
<!DOCTYPE svg PUBLIC "-//W3C//DTD SVG 20010904//EN"
 "http://www.w3.org/TR/2001/REC-SVG-20010904/DTD/svg10.dtd">
<svg version="1.0" xmlns="http://www.w3.org/2000/svg"
 width="500.000000pt" height="500.000000pt" viewBox="0 0 500.000000 500.000000"
 preserveAspectRatio="xMidYMid meet">
<metadata>
Created by potrace 1.11, written by Peter Selinger 2001-2013
</metadata>
<g transform="translate(0.000000,500.000000) scale(0.100000,-0.100000)"
fill="#000000" stroke="none">
<path d="M2565 4990 c3 -6 -1 -17 -9 -26 -9 -8 -16 -22 -16 -30 0 -8 -4 -14
-10 -14 -5 0 -7 -6 -4 -14 3 -7 -2 -21 -11 -30 -9 -9 -13 -16 -8 -16 4 0 1 -5
-7 -10 -8 -5 -15 -13 -16 -17 -1 -18 -28 -63 -37 -63 -6 0 -7 -3 -4 -6 4 -4
-3 -20 -14 -35 -11 -16 -17 -34 -14 -39 4 -6 3 -9 -2 -8 -4 2 -9 -1 -11 -7 -2
-5 -10 -17 -18 -26 -8 -9 -12 -18 -9 -21 3 -3 -1 -11 -10 -18 -8 -7 -15 -16
-15 -21 0 -5 -11 -27 -25 -49 -14 -22 -22 -40 -19 -40 4 0 -5 -11 -20 -25 -15
-14 -23 -25 -19 -25 4 0 1 -5 -7 -9 -19 -11 -107 -17 -116 -8 -4 4 -13 2 -21
-4 -10 -9 -13 -8 -13 2 0 10 -3 10 -11 2 -8 -8 -20 -8 -36 -2 -16 6 -22 5 -18
-1 4 -6 -7 -9 -27 -7 -18 2 -45 0 -60 -4 -17 -5 -29 -3 -32 4 -3 9 -7 8 -14
-2 -6 -8 -19 -12 -31 -8 -12 3 -21 0 -21 -6 0 -8 -4 -7 -9 2 -6 9 -11 10 -15
2 -4 -6 -12 -9 -17 -6 -5 4 -9 1 -9 -5 0 -8 -6 -8 -20 0 -14 8 -20 8 -20 0 0
-6 -4 -8 -10 -5 -5 3 -10 2 -10 -3 0 -6 -10 -8 -22 -4 -11 3 -19 1 -16 -4 6
-8 -10 -12 -64 -14 -10 -1 -18 -6 -18 -12 0 -6 -3 -9 -6 -6 -3 4 -20 2 -37 -4
-18 -5 -39 -11 -47 -12 -8 -1 -25 -8 -37 -14 -13 -7 -23 -10 -23 -6 0 4 -10
-1 -22 -12 -13 -12 -18 -13 -13 -4 7 12 6 13 -7 3 -8 -7 -18 -10 -21 -6 -4 3
-7 1 -7 -6 0 -7 -4 -10 -9 -6 -5 3 -13 0 -16 -6 -4 -5 -13 -8 -20 -5 -7 2 -16
-2 -19 -10 -3 -8 -13 -14 -23 -14 -24 -1 -55 -25 -45 -36 4 -4 0 -3 -9 4 -14
10 -18 10 -23 -3 -3 -9 -10 -13 -16 -10 -5 3 -10 2 -10 -4 0 -8 -36 -25 -50
-23 -3 0 -9 -6 -13 -14 -4 -8 -15 -14 -22 -14 -8 0 -15 -5 -15 -12 0 -6 -3 -8
-7 -5 -3 4 -13 -2 -20 -13 -8 -11 -18 -18 -23 -15 -5 3 -14 -3 -19 -14 -6 -11
-20 -23 -31 -26 -11 -4 -18 -10 -15 -15 3 -5 -3 -11 -14 -15 -11 -3 -22 -13
-25 -21 -3 -9 -11 -12 -18 -8 -7 4 -10 4 -6 0 4 -5 -3 -19 -15 -31 -12 -13
-38 -41 -58 -62 -20 -21 -44 -50 -54 -65 -9 -15 -22 -25 -27 -22 -6 4 -5 -3 1
-15 10 -17 9 -20 -4 -15 -9 4 -15 0 -15 -9 0 -8 -4 -17 -8 -19 -9 -4 -52 -93
-52 -108 0 -6 -4 -8 -10 -5 -5 3 -7 0 -4 -8 3 -8 -2 -17 -11 -21 -9 -3 -14
-10 -10 -16 3 -5 -1 -23 -10 -40 -8 -16 -13 -30 -9 -30 4 0 1 -7 -6 -15 -10
-12 -10 -15 1 -15 12 0 12 -2 1 -9 -8 -4 -12 -17 -10 -29 1 -11 -6 -30 -17
-43 -11 -12 -14 -19 -7 -15 15 9 16 -6 0 -22 -8 -8 -8 -15 0 -25 8 -10 8 -17
1 -24 -6 -6 -10 -30 -7 -52 2 -23 1 -41 -3 -41 -4 0 -4 -15 0 -32 3 -18 6 -48
6 -65 0 -18 3 -33 8 -33 4 0 3 -9 -3 -19 -8 -16 -6 -22 7 -30 14 -8 15 -10 3
-11 -13 0 -13 -1 0 -10 8 -5 11 -10 5 -10 -5 0 -3 -5 5 -10 11 -7 11 -10 2
-10 -9 0 -10 -5 -3 -17 5 -10 11 -33 14 -51 3 -18 11 -40 17 -48 7 -7 8 -14 3
-14 -5 0 -10 -7 -10 -14 0 -8 5 -14 11 -13 6 1 12 -10 14 -25 2 -16 8 -28 13
-28 6 0 7 -9 4 -21 -5 -16 -4 -19 5 -14 8 5 11 3 8 -6 -3 -8 2 -23 11 -33 12
-14 12 -17 2 -11 -8 5 -5 -6 8 -23 12 -18 19 -32 16 -32 -4 0 1 -7 9 -16 9 -8
14 -19 11 -24 -3 -5 -2 -10 3 -12 11 -4 72 -97 72 -109 0 -5 4 -9 8 -9 5 0 14
-16 22 -35 8 -19 16 -35 19 -35 4 0 12 -13 19 -28 6 -16 21 -38 31 -49 11 -12
17 -24 14 -27 -4 -3 -1 -6 6 -6 6 0 16 -11 21 -25 5 -14 15 -25 21 -25 7 0 9
-3 6 -6 -4 -4 6 -21 21 -39 38 -45 57 -75 54 -86 -1 -5 3 -9 9 -9 5 0 7 -4 4
-10 -3 -5 1 -10 9 -10 9 0 16 -9 16 -20 0 -10 9 -24 20 -30 11 -6 20 -17 20
-25 0 -8 5 -15 10 -15 6 0 10 -9 10 -20 0 -11 5 -20 10 -20 6 0 15 -11 22 -25
6 -13 15 -22 19 -19 5 3 9 -6 9 -20 0 -16 5 -25 13 -24 6 2 11 -3 9 -9 -1 -7
2 -13 8 -13 5 0 10 -7 10 -15 0 -8 10 -25 23 -39 53 -60 58 -68 53 -82 -3 -8
0 -13 7 -11 7 1 11 -6 9 -16 -2 -10 2 -16 10 -15 7 2 14 -7 16 -20 2 -13 8
-20 14 -16 7 5 9 1 5 -9 -3 -8 1 -21 9 -27 8 -7 14 -21 14 -32 0 -10 5 -16 10
-13 6 3 10 0 10 -8 0 -8 8 -29 17 -48 17 -34 23 -52 25 -76 1 -7 5 -13 10 -13
5 0 7 -4 3 -9 -3 -5 0 -13 6 -17 8 -4 7 -9 -2 -15 -12 -7 -12 -9 0 -9 10 0 11
-3 2 -14 -8 -9 -8 -16 -2 -20 6 -4 8 -13 4 -21 -3 -9 1 -15 8 -15 9 0 10 -3 4
-8 -5 -4 -11 -25 -12 -47 -3 -64 -7 -85 -16 -85 -5 0 -7 -5 -5 -12 2 -6 -4
-20 -14 -30 -10 -10 -18 -25 -18 -34 0 -8 -4 -12 -10 -9 -5 3 -10 -1 -10 -9 0
-8 -9 -21 -20 -29 -11 -8 -17 -16 -14 -19 3 -4 -8 -14 -25 -24 -17 -10 -31
-22 -31 -27 0 -4 -4 -5 -10 -2 -5 3 -10 1 -10 -4 0 -15 -27 -14 -36 1 -5 7 -2
8 7 3 11 -6 12 -5 2 6 -7 7 -13 30 -13 51 0 21 -4 38 -9 38 -6 0 -8 9 -6 20 2
11 -1 20 -6 20 -6 0 -8 4 -5 9 8 12 -23 71 -40 78 -8 3 -14 10 -14 15 0 10
-26 36 -85 87 -39 33 -133 74 -171 75 -18 1 -30 4 -27 8 2 5 -11 8 -29 9 -18
0 -50 1 -71 2 -20 1 -37 -2 -37 -8 0 -5 -5 -3 -10 5 -5 8 -10 10 -10 4 0 -6
-10 -11 -22 -10 -13 1 -29 -5 -36 -14 -8 -8 -11 -9 -7 -2 7 13 -7 17 -19 4 -4
-4 -11 -8 -14 -8 -28 -6 -52 -18 -52 -26 0 -5 -4 -7 -8 -4 -5 3 -22 -7 -38
-22 -17 -15 -47 -42 -67 -60 -21 -17 -34 -32 -30 -32 4 0 0 -5 -9 -11 -10 -5
-18 -17 -18 -25 0 -9 -5 -12 -12 -8 -6 4 -8 3 -5 -3 3 -5 -1 -20 -10 -33 -10
-13 -19 -33 -21 -45 -8 -42 -9 -185 -2 -185 4 0 11 -7 14 -16 3 -8 2 -12 -4
-9 -6 3 -7 -1 -4 -9 3 -9 10 -16 15 -16 5 0 9 -7 9 -15 0 -8 4 -15 10 -15 5 0
9 -3 8 -7 -3 -15 14 -43 23 -37 5 3 9 -1 9 -8 0 -8 13 -25 30 -40 16 -14 26
-29 22 -33 -4 -5 -2 -5 4 -2 6 3 20 -2 31 -12 10 -10 29 -24 41 -30 12 -6 22
-19 22 -27 0 -8 4 -13 9 -10 4 3 13 -6 20 -20 9 -20 9 -24 -1 -18 -10 6 -10 4
0 -8 18 -23 8 -109 -14 -125 -9 -7 -14 -19 -10 -28 3 -9 2 -14 -2 -12 -10 7
-32 -19 -24 -28 4 -4 2 -5 -3 -3 -14 4 -76 -48 -67 -56 3 -4 -1 -4 -10 -1 -8
3 -23 -2 -33 -12 -10 -9 -25 -18 -33 -19 -8 -2 -18 -8 -22 -14 -4 -6 -14 -12
-22 -14 -9 -1 -22 -7 -29 -13 -8 -6 -18 -13 -24 -15 -5 -1 -9 -6 -8 -10 2 -4
-5 -4 -14 -1 -9 3 -21 0 -27 -8 -6 -8 -16 -15 -21 -16 -29 -5 -41 -9 -47 -18
-4 -5 -11 -10 -16 -10 -13 0 -106 -49 -114 -60 -4 -5 -8 -6 -8 -2 0 4 -6 3
-13 -3 -46 -40 -61 -50 -71 -50 -6 0 -4 -5 4 -11 12 -8 7 -9 -18 -6 -28 3 -32
1 -32 -20 l0 -24 670 2 c497 1 670 4 670 12 0 8 3 9 8 1 8 -12 76 -13 88 -1
10 9 27 9 20 -1 -2 -4 9 -8 25 -7 16 0 29 4 29 9 0 5 6 4 13 -2 9 -8 535 -11
1745 -12 1703 -1 1732 0 1732 19 0 17 -8 19 -107 19 -60 0 -117 3 -127 8 -11
4 -17 4 -14 -2 7 -10 -298 -10 -338 0 -16 4 -24 14 -24 29 0 15 -3 18 -8 9 -6
-8 -13 -1 -22 23 -8 19 -17 35 -22 35 -4 0 -8 5 -8 10 0 6 -5 16 -10 23 -41
48 -49 61 -44 68 3 5 -2 9 -11 9 -9 0 -13 5 -10 10 3 6 0 13 -9 16 -21 8 -27
31 -7 29 9 0 22 -4 29 -9 6 -4 12 -4 12 0 0 4 8 -2 18 -13 16 -19 50 -37 63
-35 4 1 18 -9 32 -22 14 -13 28 -22 30 -19 3 2 20 -5 38 -16 19 -12 40 -21 47
-21 7 0 20 -7 28 -15 9 -8 24 -15 35 -15 13 0 18 -4 13 -12 -4 -6 -3 -8 3 -5
12 7 63 -14 63 -26 0 -5 5 -5 10 -2 6 3 10 1 10 -6 0 -7 3 -9 7 -6 3 4 12 2
20 -5 21 -17 75 -17 103 0 30 18 50 44 44 54 -3 5 3 8 12 8 10 0 15 3 11 6 -3
4 1 13 9 21 8 9 13 22 10 29 -3 8 0 11 10 7 8 -3 14 -2 13 3 -1 5 0 12 1 17 1
4 3 13 4 20 0 6 7 13 14 13 6 1 17 2 24 3 6 0 8 4 5 8 -4 3 -2 12 4 20 6 7 8
13 5 13 -4 0 2 10 14 22 22 24 28 102 8 114 -7 4 -8 3 -4 -4 4 -7 2 -12 -3
-12 -6 0 -11 4 -11 9 0 5 -8 8 -17 6 -10 -1 -26 2 -35 6 -10 6 -19 5 -23 -1
-4 -6 -11 -8 -16 -4 -9 5 -85 15 -141 18 -16 0 -28 4 -28 8 0 5 -13 8 -30 8
-16 0 -30 4 -30 10 0 5 -3 9 -7 8 -5 -2 -23 3 -40 11 -39 16 -43 42 -10 64 57
37 143 137 130 151 -3 3 -2 6 4 6 11 0 36 53 36 76 0 8 3 14 6 14 8 0 6 87 -3
127 -4 18 -12 33 -16 33 -5 0 -7 6 -4 14 3 8 0 17 -7 22 -8 5 -10 3 -4 -6 5
-9 4 -11 -4 -6 -9 6 -9 11 -1 21 8 9 6 14 -5 19 -8 3 -15 12 -15 21 0 8 -4 15
-10 15 -5 0 -10 7 -10 16 0 8 -3 13 -7 11 -11 -6 -43 30 -35 39 4 4 2 4 -4 1
-6 -4 -22 5 -35 19 -23 24 -68 50 -99 56 -8 2 -18 7 -21 11 -3 4 -16 9 -27 10
-12 1 -22 5 -22 10 0 5 -7 4 -15 -3 -9 -7 -15 -8 -15 -2 0 10 -167 14 -185 3
-5 -3 -14 -6 -20 -8 -5 -1 -21 -4 -34 -7 -14 -3 -28 -11 -33 -18 -6 -10 -8 -9
-8 2 0 10 -3 11 -8 4 -4 -6 -21 -18 -38 -27 -31 -16 -121 -87 -110 -87 3 0 -3
-9 -14 -20 -11 -11 -25 -20 -32 -20 -6 0 -8 -3 -5 -7 4 -3 2 -12 -4 -20 -6 -7
-8 -13 -5 -13 4 0 0 -7 -9 -16 -13 -14 -14 -19 -3 -25 10 -7 9 -9 -4 -9 -10 0
-18 -6 -18 -14 0 -10 -10 -13 -32 -10 -48 6 -61 9 -84 22 -12 6 -24 9 -28 7
-3 -3 -4 -2 -2 1 7 9 -40 54 -56 55 -7 0 -4 4 7 9 11 5 14 9 8 9 -17 1 -46 58
-33 66 6 3 6 15 0 29 -5 13 -6 26 -4 29 3 3 7 20 10 38 6 50 9 60 29 104 9 22
18 45 19 50 3 19 49 90 74 112 13 12 21 27 17 32 -3 6 2 11 11 11 10 0 15 3
12 6 -3 3 7 20 23 37 45 48 53 59 79 97 14 19 29 40 35 47 31 37 35 43 35 52
0 5 9 13 20 16 11 4 18 11 15 16 -4 5 1 12 9 15 9 3 16 12 16 20 0 7 11 25 25
39 14 14 22 25 18 25 -4 0 0 5 10 11 9 5 17 16 17 24 0 8 9 19 20 25 12 7 17
16 13 27 -4 10 -2 14 4 10 5 -3 16 9 23 28 7 19 17 32 22 29 4 -3 8 3 8 14 0
10 11 29 25 42 14 13 23 26 20 28 -3 3 1 12 9 21 8 9 23 32 34 51 11 19 41 71
66 115 25 44 46 85 46 92 0 7 5 13 10 13 6 0 9 3 8 8 -1 4 11 32 27 62 16 30
29 57 30 60 0 3 4 11 8 18 5 6 5 17 2 22 -3 6 -1 10 5 10 6 0 9 4 5 9 -3 5 -1
12 5 16 6 4 8 11 5 16 -4 5 -2 9 3 9 5 0 9 7 10 15 1 8 3 22 4 30 1 8 5 15 10
15 4 0 7 3 6 8 -2 6 27 149 36 177 2 6 4 12 4 15 0 3 5 17 11 33 7 18 7 27 0
27 -6 0 -7 5 -2 13 4 6 8 31 9 54 1 23 4 48 7 57 4 9 3 16 -2 16 -4 0 -7 23
-7 50 1 28 -1 50 -4 50 -3 0 -6 12 -6 28 -2 39 -11 84 -28 141 -8 28 -12 51
-9 51 3 0 1 6 -5 13 -6 6 -11 17 -12 22 -6 28 -33 85 -42 85 -5 0 -7 4 -4 8 3
5 -3 18 -13 29 -10 11 -22 29 -25 41 -4 12 -12 22 -18 22 -6 0 -8 3 -5 6 3 4
-5 15 -18 26 -14 11 -22 24 -19 30 4 7 2 8 -4 4 -7 -4 -12 -2 -12 4 0 6 -4 8
-10 5 -6 -3 -7 1 -4 9 4 11 0 16 -10 16 -9 0 -16 7 -16 15 0 8 -3 14 -7 13 -5
-2 -9 1 -10 6 -1 5 -7 13 -15 17 -7 5 -8 9 -3 9 6 0 11 10 11 23 3 43 13 90
21 96 13 10 9 129 -4 142 -7 7 -13 21 -13 31 0 10 -7 21 -15 24 -8 4 -15 15
-15 25 0 11 -7 19 -16 19 -8 0 -13 4 -9 9 3 5 -2 16 -10 24 -8 9 -15 21 -15
27 0 6 -7 13 -15 16 -8 4 -12 10 -10 15 3 4 -3 17 -15 29 -11 11 -17 20 -13
20 4 0 -2 8 -13 19 -31 30 -54 60 -54 71 0 6 -5 10 -10 10 -6 0 -21 11 -34 25
-13 13 -26 22 -29 18 -4 -3 -7 0 -7 8 0 31 -142 64 -202 48 -18 -5 -28 -4 -28
4 0 6 -7 2 -15 -9 -8 -10 -15 -14 -15 -9 0 15 -43 16 -52 2 -6 -9 -8 -9 -8 0
0 6 -13 10 -30 9 -16 -1 -30 2 -30 7 0 5 -7 6 -16 3 -8 -3 -13 -2 -10 3 6 8
-30 25 -47 22 -5 -1 -6 3 -3 8 4 5 1 13 -5 16 -5 4 -8 13 -5 21 3 8 2 14 -3
14 -5 0 -15 15 -22 32 -7 18 -26 46 -41 62 -15 16 -28 35 -28 42 0 8 -7 14
-16 14 -8 0 -13 4 -10 9 3 4 -6 13 -19 19 -14 7 -25 16 -25 22 0 5 -6 10 -13
10 -7 0 -18 9 -25 20 -7 12 -18 18 -24 14 -6 -4 -8 -3 -5 3 8 13 -38 57 -51
49 -5 -3 -12 4 -15 15 -4 15 -11 20 -21 16 -9 -4 -16 -2 -16 2 0 5 -13 14 -30
20 -16 5 -30 7 -30 4 0 -3 -6 -1 -13 5 -7 6 -25 9 -40 8 -18 -2 -27 1 -27 10
0 8 -5 14 -11 14 -5 0 -8 -3 -6 -7 3 -5 -22 -8 -56 -8 -39 1 -62 5 -65 13 -3
9 -7 10 -17 2 -9 -8 -15 -8 -20 0 -10 17 -85 13 -85 -5 0 -8 -5 -15 -11 -15
-5 0 -7 -4 -4 -10 3 -5 1 -10 -5 -10 -6 0 -9 -4 -6 -9 3 -5 -1 -14 -9 -21 -8
-7 -15 -18 -15 -26 0 -7 -7 -20 -16 -28 -9 -10 -11 -16 -4 -16 8 0 7 -5 -2
-15 -23 -26 -33 -40 -36 -55 -2 -8 -8 -17 -13 -18 -5 -2 -7 -8 -3 -13 3 -5 0
-9 -6 -9 -6 0 -8 -4 -5 -10 3 -5 2 -10 -3 -10 -6 0 -15 -13 -21 -30 -5 -16
-15 -30 -22 -30 -6 0 -9 -8 -6 -20 3 -11 2 -18 -3 -15 -8 5 -25 -24 -22 -37 1
-5 -2 -8 -7 -8 -7 0 -20 -27 -25 -53 0 -4 -7 -11 -14 -16 -8 -5 -14 -12 -14
-17 -1 -17 -11 -39 -32 -68 -13 -19 -15 -27 -5 -22 7 4 6 1 -3 -7 -10 -8 -18
-18 -18 -23 0 -5 -11 -26 -25 -47 -14 -20 -23 -42 -19 -49 4 -6 3 -8 -3 -5 -6
4 -19 -11 -29 -33 -10 -22 -22 -40 -26 -40 -5 0 -8 -6 -8 -14 0 -8 -6 -16 -14
-19 -8 -3 -12 -16 -11 -31 2 -14 0 -24 -4 -21 -5 2 -20 -20 -35 -50 -14 -30
-31 -57 -36 -60 -6 -4 -8 -11 -5 -16 4 -5 1 -9 -5 -9 -6 0 -9 -4 -5 -9 3 -5
-1 -16 -9 -23 -7 -8 -17 -24 -21 -37 -4 -12 -9 -20 -12 -17 -4 3 -17 -18 -31
-47 -14 -28 -30 -55 -36 -59 -6 -5 -7 -8 -1 -8 6 0 5 -3 -1 -8 -6 -4 -25 -35
-41 -69 -17 -34 -34 -59 -38 -55 -5 4 -5 -1 -2 -10 4 -10 2 -18 -3 -18 -6 0
-10 -7 -10 -15 0 -7 -6 -18 -14 -22 -8 -4 -16 -17 -18 -28 -1 -11 -9 -26 -16
-33 -7 -8 -10 -17 -7 -22 3 -5 2 -10 -3 -12 -13 -5 -62 -95 -55 -102 3 -3 1
-6 -6 -6 -7 0 -9 -4 -6 -10 3 -5 -1 -10 -10 -10 -9 0 -14 -4 -11 -8 3 -5 -8
-28 -24 -52 -16 -24 -27 -47 -24 -52 3 -4 0 -8 -5 -8 -6 0 -11 -9 -11 -21 0
-13 -4 -18 -12 -13 -8 5 -9 0 -6 -14 4 -12 3 -20 -2 -17 -4 3 -15 -13 -24 -35
-9 -22 -21 -40 -27 -40 -5 0 -7 -5 -3 -12 4 -6 -1 -17 -11 -25 -11 -7 -15 -13
-11 -13 4 0 -1 -12 -12 -27 -32 -46 -62 -110 -54 -118 4 -5 2 -5 -4 -2 -6 3
-19 -12 -29 -36 -10 -23 -22 -45 -27 -48 -5 -3 -10 -15 -11 -27 0 -11 -4 -19
-8 -16 -8 4 -25 -35 -21 -48 1 -5 -3 -8 -8 -8 -10 0 -35 -48 -32 -62 1 -5 -2
-8 -7 -8 -5 0 -12 -12 -15 -26 -4 -14 -15 -35 -26 -46 -11 -12 -17 -25 -14
-30 3 -4 0 -8 -6 -8 -7 0 -10 -7 -6 -15 3 -9 0 -15 -10 -15 -8 0 -12 -5 -9
-10 3 -6 -1 -13 -9 -16 -9 -3 -14 -10 -11 -14 3 -5 -2 -15 -10 -23 -8 -9 -15
-19 -15 -24 0 -8 -37 -35 -55 -39 -5 -2 -24 -7 -42 -12 -26 -9 -34 -7 -49 9
-13 15 -14 19 -3 19 9 0 10 3 3 8 -5 4 -10 25 -9 47 0 22 -3 43 -8 46 -5 3 -2
13 7 21 11 12 12 18 3 28 -9 10 -9 11 1 6 8 -5 16 3 23 21 20 53 40 90 60 112
13 14 15 21 7 21 -8 0 -6 5 5 11 9 5 17 17 17 24 0 8 5 15 11 15 5 0 7 5 4 10
-3 6 -1 10 6 10 7 0 9 3 6 7 -4 3 1 15 10 26 13 15 14 19 3 13 -13 -7 -13 -6
0 6 8 7 16 20 18 28 2 8 8 17 13 18 5 2 7 8 3 13 -3 5 -1 9 5 9 6 0 7 7 4 17
-4 9 -2 14 3 10 6 -3 16 3 23 15 10 16 10 19 -1 13 -7 -4 -3 2 9 12 19 16 45
62 47 86 1 4 7 12 15 16 7 5 10 14 7 20 -4 6 -2 11 5 11 7 0 10 3 6 6 -3 4 1
13 9 21 8 9 13 22 10 29 -3 9 0 11 11 7 10 -4 14 -2 10 4 -4 6 -1 18 7 26 8 8
13 17 10 20 -3 2 6 17 20 32 15 16 26 34 26 42 0 8 4 12 8 9 5 -3 9 0 9 7 1
24 8 42 23 54 8 7 11 13 7 13 -5 0 1 12 12 26 12 15 21 33 21 40 0 8 5 14 11
14 5 0 8 4 5 8 -3 5 4 19 15 30 11 12 15 22 9 22 -6 0 -2 10 10 22 19 21 24
33 21 51 -1 5 3 6 9 2 9 -5 12 1 9 21 0 4 4 10 9 13 6 3 12 13 14 20 2 8 11
23 21 33 10 10 15 23 12 28 -4 6 -3 10 2 10 9 0 39 61 35 73 -1 5 2 6 8 2 9
-6 14 7 11 28 0 4 4 7 10 7 5 0 7 5 4 10 -3 6 -1 10 5 10 6 0 9 4 6 9 -3 5 1
12 10 15 8 3 12 10 9 16 -3 5 -2 10 4 10 6 0 15 18 21 40 6 22 14 38 19 36 4
-3 13 11 20 30 7 18 16 34 20 34 4 0 15 19 25 43 11 23 26 50 34 60 8 9 12 17
8 17 -4 0 2 14 14 30 12 17 18 30 15 30 -4 0 1 7 10 16 9 9 14 23 11 30 -3 8
0 13 7 11 7 -1 12 5 12 13 0 8 6 19 13 23 7 5 10 12 7 18 -4 5 -1 9 4 9 6 0
11 7 11 15 0 8 5 15 10 15 6 0 9 3 9 8 -3 16 2 31 14 44 20 22 49 78 40 78 -4
0 1 7 11 15 11 8 16 15 10 15 -5 0 0 7 10 15 11 8 17 15 13 15 -4 0 -2 10 5
23 7 12 13 27 13 32 1 6 6 9 12 8 6 -1 9 6 6 17 -3 12 1 22 11 26 9 3 16 12
16 20 0 8 5 14 11 14 5 0 8 4 5 9 -3 5 6 21 20 36 14 15 23 34 20 41 -3 8 -1
14 5 14 10 0 35 59 31 73 -1 5 2 6 7 3 11 -7 25 30 16 44 -3 5 0 7 9 4 10 -4
16 4 21 25 3 17 6 34 5 37 -1 4 4 11 12 15 8 6 0 9 -25 9 -23 0 -36 -4 -32
-10z m805 -217 c0 -8 4 -12 8 -9 5 3 15 -10 22 -29 8 -19 17 -35 22 -35 4 0 8
-7 8 -15 0 -8 4 -15 8 -15 10 0 37 -51 33 -63 -1 -5 2 -6 6 -4 5 3 14 -1 21
-9 7 -8 10 -14 6 -14 -4 0 6 -10 22 -22 16 -13 31 -26 32 -30 2 -5 8 -6 13 -2
5 3 9 0 9 -5 0 -6 6 -11 14 -11 8 0 16 -4 18 -9 2 -5 10 -11 18 -13 8 -2 18
-6 21 -10 3 -5 17 -9 32 -10 15 -1 27 -6 27 -10 0 -4 9 -8 21 -8 13 0 18 4 13
13 -6 9 -5 9 7 0 9 -7 26 -11 38 -8 83 16 110 15 116 -5 4 -11 11 -17 17 -14
7 4 8 2 4 -5 -4 -6 -11 -9 -16 -6 -5 3 -12 -5 -16 -19 -3 -14 -13 -31 -21 -38
-16 -13 -37 -58 -34 -71 1 -5 -3 -6 -8 -3 -5 3 -14 -8 -21 -24 -7 -17 -16 -30
-21 -30 -5 0 -9 -7 -9 -15 0 -9 -7 -18 -16 -22 -13 -5 -13 -7 -2 -14 10 -7 8
-9 -6 -9 -11 0 -17 -3 -13 -6 3 -4 -5 -21 -18 -39 -14 -17 -22 -35 -17 -40 4
-5 2 -5 -4 -2 -6 4 -21 -13 -34 -39 -13 -25 -34 -56 -46 -69 -12 -13 -20 -26
-18 -28 3 -2 -2 -10 -11 -17 -8 -7 -15 -19 -15 -26 0 -8 -4 -14 -10 -14 -5 0
-9 -4 -7 -9 1 -5 -7 -17 -18 -26 -11 -9 -13 -14 -5 -10 10 4 9 2 -2 -8 -10 -8
-15 -17 -11 -20 3 -4 1 -7 -5 -7 -7 0 -12 -7 -12 -15 0 -8 -5 -15 -12 -15 -6
0 -8 -3 -5 -6 4 -4 -3 -15 -15 -25 -11 -11 -17 -19 -12 -19 5 0 2 -5 -6 -10
-8 -5 -15 -13 -15 -17 0 -4 -5 -17 -11 -27 -9 -15 -24 -19 -72 -20 -33 -1 -58
-4 -55 -8 2 -5 -13 -9 -34 -10 -51 -2 -56 -2 -70 -11 -6 -4 -15 -2 -18 4 -4 5
-14 8 -22 5 -8 -3 -11 -2 -8 3 3 5 -5 13 -17 17 -13 4 -30 15 -39 25 -9 11
-21 19 -28 19 -6 0 -11 5 -11 11 0 5 -4 8 -9 5 -5 -4 -11 -3 -13 1 -5 13 -118
94 -118 86 0 -4 -7 3 -16 15 -8 12 -20 20 -25 16 -5 -3 -8 0 -7 6 2 7 -11 20
-28 28 -41 22 -58 57 -37 77 8 8 11 15 6 15 -4 0 0 7 11 15 10 8 15 19 10 26
-5 9 -2 10 10 6 9 -4 15 -3 12 1 -3 5 4 16 14 25 12 10 17 23 13 33 -4 12 -3
15 5 10 11 -6 13 -2 12 19 -1 3 6 13 15 21 8 9 12 20 9 26 -5 7 -2 8 5 4 8 -5
14 0 18 13 3 12 9 21 14 21 5 0 9 7 9 15 0 9 7 18 15 21 8 4 13 10 10 14 -2 4
4 18 15 30 11 12 22 31 25 41 4 11 11 17 16 14 5 -4 9 3 9 13 0 11 7 25 15 32
8 7 15 16 15 21 0 16 48 78 55 71 5 -4 5 -2 1 5 -3 6 4 22 17 35 13 13 21 30
19 37 -3 8 0 11 7 7 7 -5 11 1 11 14 0 12 4 19 9 15 9 -5 21 18 20 38 0 4 10
17 23 28 13 11 16 18 8 14 -12 -5 -12 -4 1 7 9 7 26 32 38 56 12 24 28 45 36
49 8 3 13 8 10 12 -2 4 2 8 10 8 8 0 15 -7 15 -14z m560 -307 c0 -3 -4 -8 -10
-11 -5 -3 -10 -1 -10 4 0 6 5 11 10 11 6 0 10 -2 10 -4z m-2338 -358 c10 -10
18 -24 18 -32 0 -8 5 -18 10 -21 6 -4 8 -11 5 -16 -4 -5 -2 -9 4 -9 5 0 12 -9
16 -20 7 -21 48 -25 73 -7 6 5 12 6 12 1 0 -4 6 1 14 11 13 18 14 18 32 0 11
-10 19 -23 20 -29 1 -17 -17 -36 -27 -30 -5 3 -6 -3 -2 -12 4 -12 3 -15 -5
-10 -7 4 -12 2 -12 -4 0 -6 -4 -8 -10 -5 -5 3 -10 1 -10 -5 0 -7 -7 -9 -16 -6
-8 3 -12 2 -9 -3 5 -8 -25 -24 -48 -26 -4 0 -11 -5 -15 -11 -5 -6 -13 -4 -24
8 -10 10 -18 19 -17 21 2 11 -33 77 -40 73 -4 -3 -8 0 -9 7 -1 23 -28 87 -34
82 -3 -3 -3 6 -1 20 3 14 12 25 19 25 8 0 14 5 14 10 0 14 20 8 42 -12z m-168
-187 c-2 -2 4 -13 13 -24 13 -15 14 -18 3 -13 -8 4 -4 -1 9 -12 13 -10 21 -24
17 -30 -3 -6 1 -9 11 -7 10 1 17 8 15 14 -1 6 1 10 5 10 20 -3 34 2 28 11 -3
6 -5 10 -3 10 2 0 18 4 36 10 28 7 33 7 28 -5 -3 -8 -1 -15 3 -15 13 0 6 -33
-7 -38 -7 -2 -10 -8 -6 -13 3 -5 -2 -9 -10 -9 -9 0 -16 -4 -16 -8 0 -5 -12
-15 -27 -23 -16 -8 -34 -20 -42 -27 -10 -10 -16 -10 -27 -1 -12 10 -13 8 -9
-7 4 -13 2 -12 -6 4 -7 12 -16 22 -21 22 -4 0 -8 7 -8 15 0 8 -18 34 -40 57
-22 24 -40 49 -40 55 0 7 -4 13 -8 13 -4 0 -8 9 -9 19 -1 12 10 25 30 35 31
15 33 14 58 -12 15 -15 25 -29 23 -31z m1176 10 c11 -10 11 -16 3 -18 -7 -3
-9 -11 -6 -20 4 -10 2 -14 -4 -10 -12 7 -36 -47 -26 -57 4 -3 1 -6 -6 -6 -7 0
-9 -4 -6 -10 3 -5 1 -10 -4 -10 -6 0 -10 -3 -9 -7 1 -5 -4 -28 -12 -53 -7 -25
-13 -51 -13 -57 0 -7 -4 -13 -9 -13 -5 0 -6 -10 -3 -21 5 -16 4 -19 -5 -14 -9
6 -11 4 -5 -5 4 -7 2 -16 -6 -21 -11 -7 -11 -9 -1 -9 8 0 10 -5 6 -12 -5 -7
-7 -51 -5 -98 3 -119 6 -136 22 -132 8 2 6 -5 -6 -19 -11 -12 -15 -19 -9 -16
7 4 15 0 18 -9 3 -8 2 -13 -3 -10 -11 7 -23 -22 -15 -35 12 -19 -4 -9 -64 41
-7 6 -17 8 -24 4 -7 -4 -8 -3 -4 4 10 17 -22 15 -40 -2 -8 -8 -14 -19 -14 -25
0 -6 -4 -11 -10 -11 -5 0 -7 -7 -4 -15 4 -8 2 -15 -4 -15 -6 0 -9 -11 -7 -25
1 -14 -2 -28 -8 -32 -6 -4 -7 -1 -3 8 4 8 1 5 -8 -5 -8 -10 -13 -23 -10 -27 3
-5 0 -9 -5 -9 -6 0 -11 -8 -11 -17 0 -9 -3 -14 -6 -10 -3 3 -19 -7 -34 -23
-16 -16 -40 -31 -54 -34 -14 -3 -30 -7 -36 -11 -6 -3 -13 1 -16 9 -3 9 -10 13
-15 10 -5 -3 -9 0 -9 6 0 6 -4 9 -9 5 -5 -3 -12 4 -16 15 -6 19 -54 30 -56 13
-1 -5 -2 -20 -3 -35 0 -14 -4 -30 -8 -34 -12 -12 -9 -26 4 -18 7 5 8 3 2 -7
-5 -8 -9 -32 -10 -54 -1 -22 -3 -65 -5 -95 -2 -30 0 -61 4 -67 5 -7 4 -13 -1
-13 -6 0 -8 -9 -5 -20 3 -11 9 -18 12 -15 4 2 8 -2 8 -10 0 -8 -4 -12 -9 -9
-4 3 -8 -4 -8 -15 0 -12 6 -21 13 -22 9 0 9 -2 -1 -6 -10 -4 -9 -9 5 -20 10
-8 12 -12 5 -8 -9 5 -11 0 -8 -17 3 -12 8 -36 11 -53 2 -16 9 -31 14 -33 6 -2
7 -10 4 -18 -3 -8 0 -14 7 -14 6 0 9 -4 5 -10 -8 -12 42 -110 68 -132 11 -10
16 -18 12 -18 -4 0 4 -11 19 -25 15 -14 32 -25 37 -25 6 0 7 -4 4 -10 -3 -5
-1 -10 5 -10 6 0 23 -11 38 -25 15 -14 33 -23 40 -20 6 2 12 0 12 -5 0 -6 7
-10 17 -10 9 0 13 -3 10 -7 -4 -3 0 -11 8 -17 12 -8 -6 -12 -75 -13 -50 -2
-96 -5 -101 -8 -5 -4 -9 -3 -9 2 0 9 -118 8 -127 -1 -3 -3 -15 0 -26 5 -15 8
-22 8 -28 -2 -7 -12 -9 -12 -9 0 0 11 -3 11 -15 1 -12 -10 -15 -10 -15 1 0 8
-3 9 -9 3 -13 -12 -20 -83 -9 -90 4 -3 5 -11 1 -17 -11 -19 -11 -71 1 -79 7
-5 7 -8 -1 -8 -7 0 -13 -7 -13 -16 0 -9 5 -12 13 -8 9 6 9 4 1 -7 -11 -15 -12
-158 -1 -176 4 -6 3 -14 -2 -18 -10 -5 -7 -36 4 -55 3 -6 2 -10 -3 -10 -5 0
-7 -11 -4 -25 3 -17 0 -25 -9 -25 -10 0 -11 -3 -3 -8 11 -6 19 -39 14 -52 -6
-17 -5 -50 2 -50 5 0 6 -6 1 -13 -11 -17 -10 -40 2 -56 6 -10 6 -13 0 -9 -6 4
-10 -15 -11 -48 0 -32 4 -54 10 -54 6 0 4 -4 -4 -10 -8 -5 -11 -12 -7 -16 4
-4 2 -13 -4 -21 -7 -7 -7 -13 -2 -13 11 0 11 -59 -1 -78 -4 -6 -3 -12 3 -12 5
0 7 -10 4 -23 -3 -12 -5 -31 -6 -43 -1 -16 -7 -20 -24 -18 -13 1 -29 -3 -36
-10 -7 -7 -20 -12 -29 -10 -9 1 -25 -6 -36 -16 -11 -11 -22 -16 -25 -14 -3 3
-14 1 -26 -5 -24 -13 -39 3 -22 23 7 8 11 18 10 22 -4 16 13 64 23 64 5 0 6 5
3 10 -3 6 -3 16 2 23 8 13 11 25 18 77 2 19 6 45 9 58 3 13 0 22 -7 22 -8 0
-9 3 -1 8 12 8 13 120 1 139 -4 6 -3 15 3 18 8 5 7 11 -1 21 -9 11 -8 14 2 14
9 0 10 3 4 8 -10 7 -14 28 -18 94 -1 20 -5 34 -9 31 -5 -2 -8 -1 -9 4 -4 39
-8 55 -23 103 -10 30 -23 63 -28 74 -7 13 -6 16 2 11 6 -3 1 10 -10 29 -11 20
-19 40 -19 44 2 16 -14 52 -24 52 -6 0 -7 3 -4 6 3 4 1 16 -5 28 -7 11 -11 24
-10 29 1 4 -2 7 -8 7 -5 0 -10 8 -10 18 0 9 -9 28 -20 42 -11 14 -20 31 -20
38 0 6 -5 12 -12 12 -6 0 -9 3 -5 6 3 4 -4 21 -17 38 -25 33 -42 75 -37 91 2
6 5 17 6 25 2 8 4 17 5 20 1 3 2 9 1 13 -1 5 3 6 8 2 6 -3 13 6 17 20 3 14 10
25 16 25 5 0 6 5 3 10 -3 6 0 12 7 15 8 3 15 15 15 28 1 12 7 23 13 25 5 2 10
8 10 12 0 5 17 40 37 77 21 37 38 74 40 81 1 8 9 22 18 32 9 10 14 23 10 29
-4 7 0 8 10 5 9 -4 15 -3 14 2 -5 19 13 63 28 68 8 3 12 10 9 15 -4 5 0 16 8
23 7 8 17 24 20 36 4 12 11 22 16 22 7 0 27 43 28 64 0 5 4 12 9 15 5 3 24 33
43 66 18 33 40 68 48 78 8 9 12 17 8 17 -4 0 0 7 8 16 9 8 16 22 16 30 0 8 5
14 11 14 5 0 8 4 4 9 -3 5 -1 12 5 16 6 4 8 11 5 16 -4 5 -1 9 5 9 6 0 8 5 5
10 -3 6 -1 10 4 10 6 0 11 7 11 15 0 8 5 15 11 15 6 0 9 7 5 15 -3 8 0 14 6
12 6 -1 16 13 22 32 7 19 18 37 24 39 7 2 10 8 6 13 -3 5 -1 9 5 9 6 0 7 7 4
17 -4 11 -3 14 5 9 11 -6 17 12 13 37 0 4 6 7 15 7 8 0 13 4 9 10 -3 5 2 18
12 28 10 10 19 25 21 33 2 7 9 17 15 21 7 4 8 8 2 8 -6 0 -5 3 1 8 6 4 22 28
36 54 14 26 28 45 31 41 4 -3 5 4 2 15 -2 11 3 23 11 26 8 3 14 12 14 19 0 7
12 20 28 28 15 8 30 18 34 24 4 5 8 6 8 2 0 -7 11 0 49 33 26 23 63 41 94 44
15 1 30 5 33 9 11 10 69 2 84 -12z m78 -10 c22 -11 65 -28 75 -29 4 -1 15 -8
23 -17 9 -8 20 -13 25 -10 5 4 9 2 9 -3 0 -5 9 -19 20 -32 11 -13 20 -20 20
-16 0 4 9 2 20 -4 27 -15 26 -20 -20 -71 -22 -24 -40 -50 -40 -56 0 -7 -5 -13
-11 -13 -6 0 -9 -9 -6 -19 3 -12 0 -18 -7 -15 -7 3 -13 -5 -13 -18 -1 -13 -4
-39 -8 -58 -11 -60 -13 -115 -3 -121 5 -3 10 -16 11 -27 1 -12 5 -22 9 -22 4
0 8 -6 8 -14 0 -8 5 -18 12 -22 7 -5 8 -2 3 7 -5 9 -2 9 9 -2 18 -17 66 -14
66 3 0 6 7 8 14 5 11 -4 13 -1 9 10 -4 11 -2 14 5 9 7 -4 12 -1 12 8 0 8 5 16
12 18 16 6 21 50 6 60 -10 6 -9 8 2 8 11 0 12 3 3 8 -11 7 -25 54 -24 80 1 6
1 19 1 27 -1 95 2 125 12 125 4 0 8 5 8 11 0 5 -6 7 -12 3 -10 -5 -10 -4 -2 5
8 9 17 9 37 0 15 -7 27 -15 27 -19 0 -4 12 -12 27 -19 15 -7 33 -21 41 -32 7
-11 17 -17 22 -14 4 3 13 -2 20 -10 7 -8 19 -15 26 -15 8 0 14 -4 14 -10 0 -5
8 -10 18 -10 10 0 23 -5 30 -12 9 -9 12 -9 12 0 0 6 7 9 17 5 12 -5 14 -3 8 7
-6 9 -4 11 5 5 18 -11 71 -12 77 -2 3 4 11 2 19 -4 14 -12 26 -14 102 -23 33
-4 57 -16 32 -16 -10 0 -9 -5 3 -18 10 -10 14 -22 10 -25 -3 -4 -1 -7 5 -7 7
0 12 -7 12 -15 0 -8 4 -15 8 -15 5 0 14 -16 22 -35 7 -19 17 -32 22 -29 5 3
15 -10 23 -28 8 -18 14 -29 15 -24 0 5 10 -2 23 -16 12 -13 28 -23 35 -20 7 2
12 -1 12 -6 0 -5 10 -9 23 -8 12 1 33 -4 46 -11 14 -6 28 -10 33 -7 5 3 17 2
26 -2 21 -9 40 -13 73 -16 19 -1 25 -6 21 -17 -4 -10 -1 -13 11 -8 11 4 14 2
11 -7 -3 -8 -1 -17 5 -20 7 -5 7 -15 1 -32 -7 -17 -7 -23 0 -19 6 4 10 -7 10
-25 0 -17 3 -29 8 -27 4 3 8 -16 9 -41 2 -26 8 -49 14 -51 8 -2 7 -6 -2 -12
-11 -6 -11 -11 -2 -20 8 -8 9 -18 2 -31 -7 -14 -6 -20 6 -24 14 -6 14 -8 -2
-21 -13 -10 -15 -16 -5 -19 6 -3 12 -10 12 -15 0 -6 -4 -8 -8 -5 -4 2 -7 -15
-6 -40 1 -24 -2 -47 -7 -50 -5 -3 -7 -10 -3 -15 3 -5 0 -16 -6 -24 -7 -8 -8
-15 -3 -15 5 0 9 -9 9 -19 0 -11 -4 -17 -8 -15 -4 3 -9 -4 -9 -15 -4 -59 -6
-66 -19 -63 -11 3 -11 0 0 -12 8 -11 9 -16 1 -16 -6 0 -10 -3 -10 -7 3 -19 -2
-34 -10 -29 -4 3 -8 -4 -7 -17 0 -12 -4 -21 -11 -20 -7 2 -10 -4 -7 -12 4 -8
1 -15 -6 -15 -6 0 -9 -3 -7 -7 8 -14 -12 -55 -23 -48 -6 4 -9 3 -8 -2 3 -13
-13 -57 -29 -75 -8 -9 -12 -22 -7 -29 4 -8 3 -10 -4 -5 -7 4 -12 1 -12 -9 0
-9 -4 -13 -10 -10 -5 3 -10 -3 -10 -13 0 -11 -7 -23 -16 -26 -8 -3 -13 -10
-10 -14 2 -4 -11 -25 -30 -46 -36 -39 -42 -51 -21 -41 6 4 3 -2 -8 -12 -11
-10 -31 -36 -45 -58 -13 -22 -30 -44 -37 -48 -7 -5 -11 -12 -8 -18 4 -5 1 -9
-4 -9 -6 0 -11 -7 -11 -15 0 -8 -5 -15 -11 -15 -6 0 -9 -7 -5 -15 3 -8 1 -15
-5 -15 -6 0 -7 -4 -4 -10 3 -6 -1 -7 -9 -4 -11 4 -16 0 -16 -15 0 -12 -4 -21
-9 -21 -7 0 -25 -44 -18 -46 1 0 -6 -8 -15 -18 -10 -10 -18 -24 -18 -32 0 -8
-4 -14 -10 -14 -5 0 -10 -6 -10 -14 0 -7 -8 -31 -17 -52 -9 -22 -16 -42 -15
-46 1 -5 -3 -8 -9 -8 -5 0 -8 -4 -4 -9 3 -5 1 -12 -5 -16 -5 -3 -10 -17 -10
-31 0 -13 -3 -24 -7 -24 -5 0 -8 -10 -9 -22 -1 -41 -9 -73 -19 -80 -6 -5 -5
-8 3 -8 9 0 10 -6 5 -17 -9 -18 -8 -135 1 -243 2 -33 0 -61 -7 -69 -9 -12 -9
-13 1 -7 6 4 12 5 12 2 0 -3 -10 -10 -21 -17 -12 -6 -19 -7 -15 -1 3 5 -4 12
-16 15 -18 5 -19 8 -8 21 7 9 9 16 4 16 -5 0 -9 54 -9 120 0 73 -4 120 -10
120 -7 0 -7 3 0 8 14 10 17 32 5 32 -6 0 -6 9 0 25 6 16 6 25 -1 25 -6 0 -6 6
0 19 6 10 8 21 5 24 -9 9 -10 106 -2 101 4 -3 4 5 -1 18 -4 13 -5 35 0 50 4
16 5 28 1 28 -9 0 -8 77 1 86 4 4 1 14 -6 22 -9 12 -9 16 1 19 6 3 9 10 5 16
-4 7 -8 68 -9 137 -2 165 -1 163 -18 157 -8 -3 -29 -2 -46 3 -19 5 -28 5 -25
-1 4 -5 1 -9 -4 -9 -6 0 -11 5 -11 11 0 6 -5 7 -12 2 -17 -11 -129 -12 -122
-2 3 5 -1 9 -8 10 -10 0 -10 2 0 6 6 2 12 9 12 14 0 6 -6 7 -12 3 -9 -5 -9 -3
1 9 7 9 18 14 25 10 6 -3 8 -3 4 2 -4 4 -2 15 5 23 10 13 9 14 -3 7 -8 -4 -5
2 8 14 12 12 20 26 17 32 -4 5 -2 9 3 9 12 0 73 116 65 124 -4 3 -1 6 5 6 7 0
12 8 12 18 0 10 5 23 12 30 9 9 9 12 -1 12 -9 0 -8 5 3 16 16 16 20 28 17 53
-2 7 2 10 7 7 6 -3 12 1 16 9 3 8 1 17 -5 21 -6 4 -6 11 2 20 6 8 8 14 4 14
-4 0 -2 7 5 15 7 8 9 15 5 15 -4 0 -1 8 6 17 12 15 12 16 -1 8 -12 -7 -13 -6
-3 6 10 13 23 70 26 117 0 6 5 12 11 12 6 0 4 5 -4 10 -8 5 -10 10 -4 10 6 0
10 10 10 23 -1 12 2 27 6 33 5 6 10 29 12 50 3 22 5 39 6 39 1 0 3 40 6 89 5
100 -5 119 -41 80 -12 -13 -27 -24 -34 -24 -6 0 -11 -3 -11 -8 0 -13 -62 -35
-97 -34 -35 1 -78 24 -66 35 3 4 0 7 -9 7 -8 0 -15 6 -16 13 -1 14 -10 52 -12
52 -1 0 -4 11 -6 25 -3 14 -12 32 -21 40 -12 12 -14 12 -8 1 6 -11 4 -13 -8
-8 -9 3 -16 3 -16 -1 3 -19 -2 -33 -11 -27 -5 3 -12 -6 -16 -20 -3 -14 -9 -24
-11 -21 -3 3 -14 -5 -25 -17 -11 -12 -17 -15 -13 -7 4 8 -2 5 -12 -8 -17 -21
-21 -22 -33 -8 -7 10 -20 14 -32 10 -10 -3 -18 -2 -17 3 4 21 -2 33 -16 33 -8
0 -15 9 -15 20 0 11 -6 23 -14 26 -9 3 -12 12 -9 21 5 12 3 14 -7 8 -9 -5 -11
-4 -6 4 5 7 3 24 -3 39 -6 15 -12 41 -14 57 -2 17 -6 35 -10 41 -3 6 -7 32 -8
58 -2 26 -6 49 -10 52 -4 2 -4 18 1 34 5 17 5 28 1 26 -8 -5 -12 31 -14 112
-1 23 -6 42 -12 42 -5 0 -4 4 3 9 8 4 14 12 14 16 0 4 -6 12 -14 17 -11 8 -11
10 1 15 11 4 11 7 0 13 -10 7 -10 11 0 24 11 13 11 19 1 31 -10 12 -9 15 4 15
9 0 24 -4 34 -9z m-1454 -123 c-5 -7 18 -12 39 -9 4 0 7 -4 7 -10 0 -5 5 -7
10 -4 6 3 10 1 10 -5 0 -6 5 -8 10 -5 6 3 10 1 10 -5 0 -6 5 -8 10 -5 6 3 10
0 11 -7 0 -10 2 -10 6 0 3 9 12 7 34 -9 24 -17 28 -17 22 -4 -5 15 -3 15 15 4
28 -18 16 -77 -14 -65 -8 3 -13 0 -11 -7 1 -7 -5 -13 -13 -13 -8 -1 -19 -3
-25 -4 -5 -1 -13 -2 -17 -1 -5 0 -8 -4 -8 -10 0 -5 -5 -7 -12 -3 -7 5 -9 2 -5
-8 3 -9 0 -21 -6 -28 -9 -10 -9 -11 1 -5 11 6 12 3 4 -11 -5 -11 -7 -25 -4
-33 3 -8 0 -11 -7 -7 -6 4 -9 2 -5 -7 7 -19 -25 -31 -42 -16 -8 6 -14 20 -14
30 0 11 -5 19 -11 19 -5 0 -8 4 -4 9 3 5 -1 15 -8 23 -8 7 -13 21 -11 30 1 9
-4 19 -12 22 -8 3 -14 15 -14 26 0 12 -4 19 -9 16 -5 -3 -13 7 -19 22 -11 31
0 53 31 65 9 3 17 11 17 16 0 5 9 9 19 8 11 0 17 -5 15 -9z m653 -38 c10 -15
10 -22 -2 -33 -8 -8 -11 -17 -8 -21 4 -3 1 -6 -6 -6 -7 0 -10 -4 -6 -9 3 -5 1
-12 -5 -16 -6 -4 -7 -11 -4 -17 4 -6 2 -8 -4 -4 -10 6 -28 -30 -24 -46 1 -5
-3 -8 -9 -8 -5 0 -8 -4 -5 -9 4 -5 3 -11 -2 -13 -4 -1 -20 -29 -36 -60 -15
-32 -31 -58 -36 -58 -5 0 -7 -9 -5 -20 2 -12 -2 -20 -10 -20 -9 0 -12 -6 -9
-15 4 -8 1 -15 -6 -15 -6 0 -9 -4 -6 -9 3 -5 -1 -12 -10 -15 -8 -3 -12 -10 -9
-16 3 -5 2 -10 -3 -10 -9 0 -24 -32 -26 -58 -1 -7 -6 -16 -11 -20 -15 -10 -47
-62 -38 -62 4 0 -2 -7 -13 -15 -10 -8 -15 -15 -11 -15 4 0 -4 -21 -18 -46 -14
-25 -22 -50 -19 -56 5 -7 2 -8 -6 -3 -10 6 -12 4 -7 -8 4 -10 2 -16 -6 -14 -7
1 -11 -4 -9 -10 1 -7 -2 -13 -7 -13 -5 0 -14 -15 -22 -32 -7 -18 -15 -35 -18
-38 -3 -3 -13 -14 -21 -24 -13 -18 -13 -19 0 -12 9 4 8 1 -2 -7 -10 -8 -18
-19 -18 -26 0 -6 -3 -11 -8 -11 -7 0 -34 -53 -33 -65 1 -3 -9 -16 -21 -30 -20
-23 -23 -24 -32 -8 -11 21 -15 183 -4 176 5 -2 4 6 0 19 -7 20 -8 43 -2 51 1
1 4 22 6 47 3 25 9 47 12 50 4 3 8 25 10 49 1 25 7 50 11 55 5 6 7 19 6 29 -2
9 1 17 6 17 5 0 9 9 9 20 0 11 4 20 9 20 5 0 8 11 7 25 -2 14 3 30 10 36 7 6
16 24 19 40 4 16 11 29 16 29 5 0 9 5 9 11 0 6 13 29 29 52 16 23 28 44 28 47
-1 3 25 31 56 63 31 31 57 54 57 51 0 -3 6 1 14 8 22 21 56 48 60 48 2 0 21 8
42 17 22 9 42 18 47 19 4 1 9 3 12 4 3 1 10 4 15 5 6 1 13 4 18 5 4 1 10 2 15
1 4 0 7 4 7 9 0 16 14 11 27 -10z m2536 -158 c3 7 6 3 6 -10 1 -15 5 -21 13
-16 7 4 8 3 4 -4 -4 -6 -3 -20 3 -29 10 -19 -12 -63 -25 -50 -7 7 -33 -21 -34
-36 0 -11 33 -4 42 8 5 6 8 4 8 -5 0 -13 1 -13 10 0 6 10 10 11 10 3 0 -7 6
-13 14 -13 8 0 21 -13 29 -29 13 -25 13 -33 1 -49 -12 -18 -56 -36 -70 -30 -3
2 -10 -5 -15 -14 -5 -10 -16 -15 -24 -12 -8 4 -15 1 -15 -5 0 -6 -3 -10 -7
-10 -19 3 -33 -2 -48 -17 -14 -15 -15 -14 -11 10 2 14 2 25 -2 25 -18 -3 -22
2 -10 15 7 8 17 11 22 8 5 -3 6 0 2 6 -3 5 -1 12 6 14 6 2 8 9 4 16 -3 6 -13
9 -21 6 -8 -4 -12 -10 -9 -15 3 -5 -2 -6 -10 -3 -9 3 -13 10 -10 15 3 5 1 9
-3 9 -5 0 -9 9 -10 20 -1 11 2 18 6 15 5 -2 8 3 7 13 0 9 5 16 12 14 14 -3 26
21 20 40 -3 8 -14 2 -33 -17 -16 -17 -25 -24 -21 -17 4 6 2 12 -4 12 -6 0 -18
7 -26 15 -9 8 -12 15 -7 15 5 0 13 10 18 23 6 12 18 22 28 22 10 0 22 7 27 15
5 8 10 11 10 6 0 -5 7 -2 16 5 9 7 23 14 31 15 9 2 20 7 26 13 7 7 14 7 23 0
8 -7 14 -6 17 3z m-3394 -139 c-9 -10 -8 -13 5 -13 10 0 14 -5 11 -10 -4 -6
-10 -8 -15 -5 -5 3 -5 -8 0 -24 4 -16 7 -31 5 -33 -2 -2 7 -8 21 -15 14 -6 21
-7 18 -1 -4 6 5 2 20 -7 15 -10 29 -15 33 -12 5 6 63 -19 63 -27 0 -15 -14
-35 -21 -30 -5 3 -9 0 -9 -5 0 -6 5 -11 12 -11 6 0 8 -3 4 -7 -11 -11 -76 -12
-76 -2 0 5 -8 9 -17 9 -10 0 -32 9 -50 19 l-32 20 -19 -33 c-17 -28 -24 -33
-47 -29 -17 4 -24 10 -21 19 3 8 1 14 -4 14 -5 0 -7 7 -4 15 4 8 10 12 15 9 5
-3 9 -2 8 3 -4 24 2 53 11 48 9 -5 15 15 11 38 0 4 4 7 11 7 6 0 8 3 5 7 -4 3
-2 12 5 20 6 7 8 17 4 20 -8 8 29 30 50 30 10 0 11 -4 3 -14z m3331 -216 c0
-4 4 -6 9 -3 5 4 11 2 13 -4 1 -5 15 -11 30 -12 15 -1 24 -6 22 -10 -3 -4 6
-8 20 -8 14 0 26 -5 26 -11 0 -5 5 -7 10 -4 6 3 10 0 10 -7 0 -11 2 -10 9 0
12 19 21 -19 14 -61 -5 -32 -20 -50 -35 -41 -4 3 -8 1 -8 -5 0 -5 -9 -8 -20
-6 -11 2 -18 0 -15 -6 6 -8 -8 -13 -27 -10 -5 0 -8 -3 -8 -7 0 -4 -10 -9 -22
-9 -13 -1 -24 -7 -26 -13 -2 -5 -8 -7 -14 -4 -6 4 -14 0 -19 -7 -7 -11 -9 -10
-9 4 0 10 -4 15 -10 12 -5 -3 -10 1 -10 9 0 9 6 16 13 16 9 0 9 2 -1 8 -9 6
-8 13 5 28 21 22 28 54 16 63 -5 3 -14 19 -21 34 -10 23 -10 27 0 21 10 -6 10
-5 1 7 -9 11 -10 18 -1 27 12 12 48 12 48 -1z m-3231 -77 c4 0 7 -9 8 -20 1
-11 -2 -18 -7 -15 -4 3 -6 -4 -3 -14 3 -13 -3 -25 -20 -36 -17 -11 -24 -22
-20 -32 5 -12 2 -14 -8 -9 -8 4 -5 0 5 -8 11 -9 16 -16 11 -16 -4 0 2 -9 15
-20 13 -11 20 -20 15 -20 -4 0 -2 -7 5 -15 9 -11 9 -15 1 -15 -7 0 -10 -4 -7
-8 2 -4 1 -14 -5 -22 -5 -9 -9 -10 -9 -3 0 6 -8 10 -17 8 -10 -1 -23 2 -30 7
-7 5 -18 6 -24 2 -8 -5 -9 -3 -4 6 6 10 4 12 -8 7 -10 -3 -17 -2 -17 4 0 6 -4
7 -10 4 -5 -3 -10 -1 -10 5 0 6 -5 8 -10 5 -6 -3 -13 1 -16 9 -3 9 -10 14 -14
11 -5 -3 -16 2 -24 11 -9 8 -16 12 -16 7 0 -4 -6 3 -13 17 -15 29 -18 60 -6
60 5 0 6 7 3 15 -4 10 0 13 15 10 12 -2 21 1 21 6 0 6 5 7 10 4 6 -3 10 -1 10
4 0 6 9 11 19 11 11 0 23 5 26 10 3 6 14 10 24 10 10 0 32 7 47 15 16 8 35 13
42 10 8 -3 17 -5 21 -5z m1257 -29 c-4 -5 -1 -11 6 -13 6 -2 12 -14 13 -26 1
-15 -2 -19 -8 -13 -7 7 -15 7 -26 -2 -10 -8 -13 -9 -8 0 4 6 2 13 -5 16 -7 2
-5 3 5 1 13 -2 15 1 8 10 -7 9 -7 16 1 24 14 14 21 16 14 3z m271 -87 c-3 -4
-2 -15 4 -25 7 -14 6 -19 -3 -19 -9 -1 -8 -4 3 -13 9 -7 15 -20 13 -29 -1 -9
4 -19 12 -22 7 -3 11 -11 8 -19 -6 -18 14 -34 46 -37 14 -1 27 -1 30 0 20 7
39 7 34 -1 -3 -5 3 -9 13 -10 16 0 16 -1 -2 -8 -19 -8 -19 -8 3 -15 14 -5 22
-15 22 -29 0 -18 2 -19 10 -7 8 12 10 12 10 1 0 -8 8 -20 18 -27 16 -12 15
-13 -5 -9 -13 2 -23 -1 -23 -8 0 -7 -4 -6 -10 3 -5 8 -10 12 -10 8 0 -4 -12
-3 -27 3 -36 14 -81 23 -115 22 -15 0 -25 4 -22 8 7 12 -3 11 -28 -2 -14 -7
-18 -8 -14 0 8 12 -161 10 -181 -2 -8 -5 -13 -3 -13 3 0 8 -6 7 -21 -1 -17 -9
-24 -8 -38 6 -9 10 -10 15 -3 11 7 -5 12 -1 12 9 0 10 5 13 12 9 8 -5 9 -2 5
9 -3 10 -2 17 4 17 6 0 8 4 4 9 -3 5 -1 12 5 16 6 4 8 11 5 16 -4 5 -1 9 5 9
6 0 9 4 6 8 -2 4 5 9 17 10 40 4 56 8 63 15 4 4 16 7 26 7 10 0 21 7 24 15 4
8 10 12 15 9 5 -3 9 0 9 5 0 6 8 11 17 11 9 0 14 3 10 6 -7 7 12 28 33 37 21
8 24 8 17 1z m307 -39 c3 -8 11 -14 18 -13 7 2 12 -5 10 -14 -2 -12 2 -16 13
-12 10 4 15 0 15 -13 0 -10 6 -25 13 -32 10 -10 9 -11 -5 -6 -10 4 -18 3 -18
-2 0 -11 -30 -11 -48 1 -7 4 -12 2 -12 -5 0 -7 -8 -2 -19 9 -10 12 -24 22 -32
22 -8 0 -6 6 7 16 10 8 12 13 4 9 -8 -4 -6 1 4 9 11 9 16 16 12 16 -5 0 -3 7
4 15 16 19 26 19 34 0z m1536 -65 c0 -11 -5 -22 -10 -25 -6 -4 -8 -11 -5 -16
6 -8 -12 -13 -44 -12 -19 1 -6 -56 16 -72 15 -11 15 -17 5 -39 -6 -14 -17 -25
-24 -24 -20 4 -68 60 -61 71 3 6 2 7 -4 4 -5 -3 -16 3 -23 14 -8 10 -21 19
-30 19 -16 1 -60 30 -44 30 5 0 3 4 -3 8 -10 6 -9 13 3 30 13 19 18 21 32 10
13 -11 14 -11 8 0 -7 11 -4 12 12 3 11 -6 28 -8 38 -4 13 5 15 3 9 -8 -8 -12
-6 -12 8 0 9 7 17 10 17 6 0 -4 6 -2 13 4 8 6 17 8 20 4 4 -3 7 -1 7 5 0 12
28 21 48 14 6 -2 12 -12 12 -22z m-3389 -85 c6 17 8 17 8 3 1 -10 6 -18 11
-18 14 0 12 -39 -3 -53 -7 -7 -19 -13 -27 -15 -8 -2 -24 -13 -36 -26 -30 -32
-9 -47 56 -42 47 4 75 -6 48 -17 -9 -4 -8 -6 3 -6 18 -1 23 -58 5 -58 -9 0
-54 -12 -136 -38 -3 -1 -18 -7 -33 -13 -35 -15 -60 -15 -52 -2 3 6 2 10 -4 10
-14 0 -19 32 -8 57 5 12 20 24 33 27 13 4 24 11 24 17 0 6 4 8 8 5 5 -3 9 0 9
7 0 7 4 21 8 32 6 16 5 17 -4 5 -9 -13 -12 -13 -20 -1 -6 9 -18 11 -35 7 -18
-4 -26 -2 -26 6 0 10 -2 10 -9 0 -6 -10 -11 -8 -22 10 -25 38 -11 61 44 74 4
1 8 2 10 4 1 1 16 3 32 6 47 6 58 9 80 21 16 10 21 9 24 -5 3 -15 5 -14 12 3z
m3124 -197 c11 -1 26 -9 33 -16 8 -7 18 -9 24 -6 6 4 8 2 4 -4 -4 -6 8 -16 28
-23 21 -8 36 -20 38 -34 6 -28 -1 -47 -14 -39 -6 4 -8 2 -4 -4 3 -6 -1 -18
-10 -26 -8 -9 -13 -16 -9 -16 3 0 1 -9 -5 -21 -7 -13 -17 -18 -27 -15 -14 6
-14 4 -2 -11 8 -9 9 -14 2 -10 -6 4 -15 2 -19 -4 -4 -8 -16 -2 -33 17 -17 19
-38 31 -60 33 -64 6 -73 37 -33 125 22 49 52 81 62 66 3 -4 14 -10 25 -12z
m-1865 -30 c0 8 5 10 12 6 19 -12 48 -12 48 0 0 5 6 2 13 -8 9 -12 30 -20 58
-22 64 -5 69 -6 69 -17 0 -6 3 -7 7 -4 3 4 12 2 20 -4 10 -9 13 -8 13 2 1 10
3 9 10 -3 6 -10 21 -15 39 -14 16 1 29 0 29 -3 -2 -19 4 -22 18 -11 12 11 15
11 12 -1 -2 -9 5 -14 20 -13 12 1 22 -3 22 -7 0 -5 8 -9 18 -9 10 0 24 -6 31
-12 11 -11 12 -10 6 2 -6 10 -2 9 12 -3 12 -10 36 -20 54 -21 18 -1 35 -8 37
-14 2 -7 8 -12 13 -12 6 0 7 6 4 13 -4 6 2 2 12 -9 16 -17 23 -20 39 -11 10 5
16 6 12 2 -4 -4 0 -13 8 -20 14 -10 13 -13 -15 -24 -18 -8 -45 -11 -68 -7 -21
4 -50 8 -65 9 -14 1 -24 5 -21 10 2 4 3 7 1 8 -2 0 -23 3 -48 5 -25 3 -47 9
-50 12 -3 4 -18 8 -34 9 -16 1 -32 6 -35 10 -6 8 -13 9 -68 15 -13 1 -23 6
-23 10 0 4 -10 8 -23 8 -13 0 -29 6 -36 13 -11 10 -12 9 -6 -3 7 -12 6 -13 -7
-3 -8 7 -18 10 -21 6 -4 -3 -7 0 -7 8 0 11 -2 11 -10 -1 -6 -9 -10 -10 -10 -3
0 6 -9 10 -20 8 -11 -2 -20 0 -20 5 0 5 -12 9 -27 9 -48 0 -68 6 -80 21 -11
13 -12 13 -13 0 -1 -12 -3 -12 -14 2 -7 10 -16 15 -19 11 -4 -3 -7 6 -7 20 0
15 5 27 11 27 5 0 7 -6 4 -12 -4 -7 -1 -6 7 3 7 9 18 14 25 12 7 -3 20 0 30 6
12 6 20 6 25 -2 6 -9 8 -8 8 1z m-1133 -138 c0 -18 -4 -27 -11 -23 -6 4 -5 0
2 -9 10 -12 9 -18 -3 -28 -9 -7 -18 -10 -21 -7 -7 7 -44 -29 -44 -43 0 -5 -5
-10 -11 -10 -5 0 -7 -5 -3 -11 13 -22 12 -68 -3 -73 -20 -8 -51 14 -64 46 -6
16 -16 28 -22 28 -6 0 -7 3 -4 7 4 3 3 11 -2 17 -18 23 -47 82 -46 96 0 8 7
15 15 16 21 0 60 -18 60 -28 0 -14 51 -3 61 13 5 8 9 10 9 6 0 -5 7 -1 16 7 8
9 20 14 25 11 5 -4 9 -1 9 4 0 6 8 11 18 11 14 0 19 -8 19 -30z m2896 -63 c-4
-7 1 -6 10 2 15 12 17 11 17 -3 0 -10 5 -14 10 -11 6 3 10 1 10 -4 0 -6 6 -11
13 -11 6 0 23 -10 37 -21 14 -11 18 -17 10 -13 -13 7 -13 5 -1 -9 8 -11 9 -17
3 -17 -6 0 -9 -7 -6 -15 4 -8 1 -15 -7 -15 -7 0 -9 -3 -6 -7 4 -3 0 -15 -10
-25 -9 -10 -13 -18 -10 -18 3 0 -4 -11 -16 -24 l-22 -25 -8 22 c-5 13 -4 23 3
25 5 2 8 8 4 13 -3 5 -1 9 4 9 5 0 9 15 10 34 1 27 -3 36 -18 41 -11 4 -20 11
-20 16 0 6 -4 7 -10 4 -5 -3 -10 -2 -10 3 0 18 -35 7 -48 -15 -7 -13 -17 -23
-22 -23 -6 0 -10 -7 -10 -15 0 -8 -9 -15 -20 -15 -21 0 -28 24 -10 35 6 4 8
11 5 16 -4 5 -1 9 4 9 6 0 10 3 9 8 -4 14 39 72 48 64 4 -4 2 2 -6 12 -10 13
-10 17 -2 12 7 -4 12 -2 12 4 0 6 14 2 30 -10 18 -13 27 -26 23 -33z m-183
-282 c0 6 9 11 20 12 11 1 20 -2 20 -7 0 -5 7 -6 17 -3 12 5 14 3 8 -7 -6 -10
-4 -12 9 -7 10 4 15 3 11 -3 -3 -6 -1 -10 4 -10 6 0 11 -6 11 -14 0 -8 5 -16
12 -18 22 -8 8 -104 -19 -123 -24 -18 -27 -13 -25 39 2 34 -3 48 -23 69 -14
14 -34 24 -43 22 -9 -2 -23 -4 -29 -4 -7 -1 -12 -4 -12 -8 3 -20 -2 -34 -10
-29 -5 3 -8 -1 -7 -10 0 -9 -8 -22 -20 -30 -18 -12 -21 -12 -21 0 0 9 5 12 11
9 6 -3 6 0 -1 7 -9 10 -9 18 -1 34 6 12 11 22 10 24 -7 9 0 22 8 17 9 -6 14 8
11 28 -1 5 3 6 8 3 5 -4 16 0 23 8 9 10 15 11 20 2 5 -6 8 -7 8 -1z m-123
-172 c-4 -3 6 -19 22 -34 16 -15 27 -30 23 -33 -3 -3 1 -6 10 -6 8 0 24 -11
36 -23 l22 -24 -24 -26 c-27 -29 -38 -32 -64 -18 -12 6 -24 5 -36 -4 -17 -13
-17 -15 -2 -30 9 -9 16 -13 17 -8 0 4 4 -1 8 -11 5 -13 2 -26 -8 -38 -19 -22
-28 -23 -47 -3 -9 8 -13 15 -10 15 3 0 -7 12 -22 27 -15 15 -30 27 -34 25 -4
-1 -5 5 -2 13 4 11 2 13 -9 9 -19 -7 -40 27 -31 51 4 8 15 20 25 26 22 11 89
2 89 -13 0 -6 7 -5 15 2 12 10 13 16 4 26 -6 8 -15 11 -20 8 -5 -3 -9 4 -9 16
0 13 -4 19 -12 14 -6 -4 -9 -3 -6 2 3 5 8 17 11 27 4 10 17 17 33 17 15 0 24
-3 21 -7z m-1191 -111 c-1 -15 2 -33 8 -41 9 -11 8 -13 -2 -7 -10 6 -13 3 -12
-10 4 -33 0 -45 -11 -38 -8 5 -8 8 0 14 9 5 8 10 -3 19 -11 9 -13 19 -6 37 7
16 6 24 -1 24 -8 0 -8 4 0 13 6 8 8 17 4 21 -4 4 0 4 9 1 11 -4 16 -16 14 -33z
m149 -32 c-3 -6 8 -9 27 -9 50 2 68 0 67 -8 -1 -5 0 -10 1 -13 8 -22 5 -47 -7
-43 -7 3 -13 1 -13 -4 0 -6 -15 -10 -34 -11 -19 -1 -38 -2 -42 -3 -25 -4 -44
3 -44 16 0 8 -4 15 -9 15 -11 0 -9 32 4 46 6 8 14 9 21 3 8 -6 14 -4 18 6 3 8
8 15 11 15 4 0 3 -4 0 -10z m-284 -13 c11 3 19 0 19 -6 0 -7 -5 -9 -12 -5 -9
6 -9 3 0 -9 12 -15 14 -51 2 -46 -3 1 -16 -3 -29 -10 -13 -7 -21 -9 -17 -3 8
13 -27 10 -36 -3 -5 -6 -8 -5 -8 3 0 7 -4 10 -10 7 -5 -3 -10 0 -11 7 0 7 -2
21 -4 31 -2 9 5 22 16 27 10 6 19 7 19 3 0 -4 5 -2 12 5 6 6 17 8 26 3 8 -5
23 -6 33 -4z m1157 -36 c2 -36 -8 -60 -23 -55 -8 4 -15 1 -15 -5 0 -6 -6 -8
-14 -5 -18 7 -13 35 9 61 20 24 41 25 43 4z m-1025 -97 c-3 -9 3 -23 16 -35
14 -13 21 -15 21 -7 0 9 3 9 10 -2 9 -14 15 -7 11 14 -1 5 4 5 11 -1 7 -6 31
-11 54 -10 22 0 45 -3 51 -6 7 -4 14 -3 18 2 7 12 42 6 61 -10 19 -16 6 -32
-22 -26 -13 2 -24 1 -24 -3 0 -4 -12 -6 -27 -4 -54 6 -140 4 -174 -4 -4 -1 -5
-18 -3 -37 3 -35 -16 -49 -32 -23 -4 7 -3 8 4 4 7 -4 12 -1 12 8 0 8 -5 18
-11 21 -6 4 -8 12 -6 19 3 7 -7 11 -24 11 -16 1 -29 -3 -29 -7 0 -5 -9 -4 -20
2 -15 8 -20 8 -20 -2 0 -10 -3 -9 -9 1 -8 12 -12 12 -25 2 -13 -11 -16 -11
-16 0 0 11 -2 11 -10 -1 -5 -8 -10 -10 -10 -4 0 6 -10 10 -22 9 -34 -3 -46 4
-43 23 2 9 4 20 4 23 1 3 42 5 92 5 50 -1 96 2 102 6 6 4 17 2 25 -4 7 -6 12
-7 11 -2 -2 15 13 54 22 54 5 0 6 -7 2 -16z m169 -179 c27 2 50 -1 54 -6 3 -5
9 -7 13 -5 13 9 -1 -81 -18 -109 -3 -5 -7 -18 -8 -27 -5 -32 -8 -43 -13 -48
-20 -20 -43 -52 -32 -46 6 4 12 2 12 -3 0 -6 -4 -11 -9 -11 -17 0 -42 -32 -37
-46 4 -10 0 -11 -19 -2 -24 11 -30 42 -12 66 6 7 6 12 0 12 -5 0 -8 46 -8 103
2 98 11 150 24 129 3 -6 27 -9 53 -7z m-174 -20 c0 -14 -4 -25 -8 -25 -5 0 -7
8 -5 18 2 9 4 20 4 25 2 18 9 4 9 -18z m-125 6 c16 -1 17 -13 15 -128 -1 -71
-6 -138 -12 -150 -10 -19 -13 -20 -30 -7 -11 8 -16 14 -12 14 4 0 -4 14 -18
31 -14 17 -26 39 -26 50 0 10 -4 19 -10 19 -5 0 -10 9 -10 20 0 11 -6 20 -12
21 -10 0 -10 2 -1 6 10 3 10 10 2 24 -9 18 -11 83 -2 101 2 4 25 6 51 4 26 -2
55 -4 65 -5z m123 -108 c-3 -7 -2 -13 3 -13 4 0 7 -10 6 -22 -1 -13 2 -29 8
-35 6 -9 6 -13 -3 -13 -9 0 -9 -4 1 -17 8 -9 10 -14 4 -11 -10 6 -11 -159 -1
-170 3 -3 1 -11 -5 -19 -9 -10 -8 -13 2 -13 11 0 11 -3 -1 -11 -11 -8 -12 -12
-2 -16 6 -2 9 -10 5 -16 -11 -18 -9 -161 2 -169 6 -5 5 -8 -3 -8 -8 0 -10 -8
-6 -24 3 -13 1 -34 -6 -45 -8 -16 -8 -21 2 -22 7 0 4 -4 -7 -9 -29 -13 -38
-12 -32 4 3 7 0 19 -6 25 -7 7 -8 11 0 11 7 0 8 14 3 40 -4 22 -4 40 0 40 4 0
7 7 7 15 0 8 -5 15 -10 15 -6 0 -6 5 0 13 4 6 8 62 8 122 0 62 4 113 10 117 6
5 5 8 -2 8 -7 0 -13 5 -13 11 0 5 3 8 8 6 4 -3 7 14 6 36 -1 23 3 48 9 55 6 8
6 12 -2 12 -7 0 -8 8 -1 25 5 14 6 25 1 25 -4 0 -8 7 -8 15 0 8 4 15 8 15 9 0
5 41 -5 61 -4 8 0 5 8 -6 9 -11 14 -25 12 -32z m726 -289 c13 1 29 -4 36 -11
7 -7 19 -10 26 -7 8 3 17 0 21 -6 6 -9 10 -9 16 1 7 11 9 11 9 1 0 -7 5 -10
10 -7 6 3 13 0 16 -8 3 -8 16 -13 30 -11 13 1 24 -2 24 -8 0 -6 9 -8 20 -5 11
3 23 1 26 -4 3 -5 15 -9 28 -9 25 0 70 -33 59 -44 -3 -3 -1 -6 6 -6 7 0 10 -4
6 -9 -3 -5 3 -12 13 -15 10 -3 18 -14 19 -24 1 -10 15 -33 32 -51 17 -18 31
-37 31 -43 0 -5 5 -6 12 -2 8 5 9 2 5 -9 -4 -11 -1 -17 9 -17 8 0 12 -5 9 -10
-3 -6 1 -13 9 -16 9 -3 16 -10 16 -16 0 -5 6 -15 13 -23 28 -30 47 -56 47 -65
0 -6 3 -10 8 -10 4 0 22 -22 40 -50 18 -27 37 -50 43 -50 6 0 8 -4 5 -9 -3 -4
3 -16 14 -26 11 -10 17 -21 15 -26 -3 -4 4 -10 15 -14 11 -4 18 -10 16 -13 -5
-9 49 -83 56 -76 3 2 8 -8 11 -23 4 -15 16 -39 28 -53 11 -14 17 -18 13 -10
-7 13 -5 13 9 1 9 -7 14 -17 12 -22 -3 -4 3 -17 14 -28 11 -11 17 -22 14 -25
-3 -3 2 -8 11 -12 9 -3 16 -13 16 -21 0 -8 4 -12 8 -9 4 2 9 -5 9 -16 1 -12 7
-26 14 -32 9 -8 10 -7 4 3 -5 9 -4 12 3 7 6 -4 9 -13 6 -21 -7 -17 -59 -1 -68
21 -3 7 -12 11 -20 8 -8 -3 -17 0 -21 6 -6 9 -10 9 -16 -1 -6 -11 -11 -11 -20
-2 -9 9 -16 9 -25 2 -8 -7 -14 -7 -19 1 -5 8 -11 8 -21 -1 -8 -6 -14 -7 -14
-3 0 5 -12 10 -27 12 -65 5 -78 7 -84 15 -3 4 -24 9 -47 10 -23 1 -42 4 -42 7
0 9 -111 43 -118 36 -3 -3 -13 1 -22 9 -10 9 -28 18 -41 20 -13 3 -33 7 -44 9
-11 2 -36 11 -55 19 -19 8 -44 18 -55 22 -11 4 -27 7 -37 6 -9 -1 -19 3 -23 9
-3 6 -11 8 -16 5 -5 -4 -9 -1 -9 5 0 6 -4 9 -9 5 -5 -3 -13 -1 -16 5 -5 8 -11
7 -21 -1 -10 -8 -14 -8 -14 0 0 6 -7 11 -15 11 -8 0 -15 6 -16 13 0 8 -2 8 -5
1 -5 -12 -44 -7 -44 5 0 7 -23 11 -87 14 -22 1 -39 5 -37 9 3 4 -4 7 -13 7
-36 -1 -100 8 -111 15 -7 4 -12 3 -12 -2 0 -5 -15 -8 -32 -7 -18 1 -39 -3 -47
-9 -11 -8 -13 -8 -7 2 6 10 1 11 -21 6 -15 -4 -38 -8 -50 -8 -13 0 -23 -4 -23
-8 0 -4 -3 -7 -7 -7 -23 4 -53 -2 -49 -9 3 -5 -5 -8 -17 -7 -12 1 -25 -3 -29
-8 -8 -13 -38 -18 -38 -8 0 5 11 20 25 35 14 15 25 31 25 37 0 5 4 8 8 6 4 -1
27 17 50 40 23 23 42 39 42 36 0 -3 9 6 21 21 11 14 25 24 30 20 5 -3 8 -2 7
3 -3 8 48 63 59 63 3 0 14 11 25 25 11 14 24 25 29 25 6 0 20 11 33 25 13 14
26 25 29 25 3 0 31 25 62 55 31 30 61 55 67 55 6 0 8 3 5 6 -3 4 5 16 19 27
25 19 25 23 22 121 -2 79 0 103 11 112 11 9 18 8 27 -1 7 -7 23 -12 36 -11z
m-1449 -10 c11 -4 14 -14 10 -32 -3 -15 -5 -33 -4 -39 4 -53 2 -68 -8 -71 -9
-3 -9 -7 0 -18 6 -7 9 -21 5 -29 -3 -8 0 -15 7 -15 8 0 6 -4 -3 -10 -11 -7
-11 -10 -2 -10 7 0 10 -5 7 -10 -4 -6 -2 -9 3 -8 5 2 24 -9 41 -25 17 -15 31
-24 31 -21 0 4 13 -6 28 -22 16 -16 35 -30 43 -32 8 -2 16 -8 17 -13 2 -5 10
-9 17 -9 8 0 18 -6 22 -13 4 -7 22 -21 38 -31 17 -11 34 -25 38 -33 5 -7 12
-11 18 -8 5 4 9 2 9 -2 0 -5 18 -19 40 -33 22 -14 40 -27 40 -30 0 -3 18 -16
40 -30 22 -14 40 -28 40 -32 0 -5 6 -8 14 -8 7 0 22 -11 32 -25 10 -14 24 -25
31 -25 7 0 13 -5 13 -11 0 -5 4 -8 9 -4 5 3 12 -4 16 -15 4 -11 10 -18 14 -15
7 4 19 -3 67 -44 7 -5 15 -7 18 -4 3 4 6 2 6 -4 0 -5 12 -15 26 -22 25 -11 26
-12 9 -31 -10 -11 -21 -17 -25 -15 -5 3 -10 0 -12 -6 -2 -6 -14 -2 -29 10 -15
11 -29 18 -33 16 -3 -3 -4 -2 -1 1 12 17 -58 60 -88 55 -5 -1 -6 3 -3 8 6 9
-60 37 -76 33 -5 -1 -8 2 -8 6 0 4 -10 8 -22 9 -38 2 -133 11 -133 13 0 1 -10
3 -22 4 -13 2 -23 0 -23 -3 0 -3 -34 -7 -76 -8 -42 -2 -83 -8 -90 -14 -11 -9
-14 -8 -14 0 0 9 -5 9 -21 0 -12 -6 -34 -9 -50 -7 -16 3 -29 2 -29 -2 0 -7
-10 -9 -55 -12 -14 -1 -25 -5 -25 -9 0 -4 -8 -5 -19 -2 -10 2 -25 -3 -35 -12
-10 -10 -16 -12 -16 -4 0 7 -5 8 -12 3 -7 -5 -22 -9 -33 -9 -11 0 -26 -6 -33
-15 -8 -8 -11 -9 -7 -2 4 7 0 12 -9 12 -9 0 -16 -5 -16 -11 0 -5 -8 -9 -17 -8
-10 1 -21 1 -25 0 -5 0 -11 -1 -14 0 -4 0 -11 -5 -15 -13 -7 -10 -9 -10 -9 0
0 10 -7 9 -29 -3 -19 -9 -32 -11 -36 -5 -4 6 -15 4 -30 -6 -13 -8 -42 -16 -64
-17 -23 -1 -41 -5 -41 -9 0 -3 -11 -5 -25 -3 -14 1 -28 -2 -31 -6 -3 -5 0 -9
7 -9 7 0 9 -3 6 -6 -4 -4 -12 -2 -20 4 -10 8 -20 8 -38 -1 -13 -7 -37 -14 -53
-15 -16 -1 -34 -6 -40 -12 -7 -5 -21 -9 -31 -9 -40 -1 -55 -5 -55 -13 0 -5 -6
-6 -12 -1 -18 11 -32 10 -40 -2 -5 -6 -8 -4 -8 5 0 13 -2 13 -9 1 -8 -13 -12
-13 -27 0 -11 9 -15 9 -10 2 12 -20 -49 -16 -71 4 -10 10 -14 15 -9 11 5 -4
15 0 23 8 8 8 19 12 24 8 5 -3 8 -1 7 4 -2 5 21 32 50 60 29 29 53 55 55 59 1
5 5 7 9 6 7 -3 12 12 9 29 0 4 6 5 13 2 8 -3 17 3 21 15 3 11 15 23 26 26 11
4 18 9 16 12 -3 2 17 25 44 50 26 26 46 50 43 54 -2 4 5 10 15 14 11 3 23 15
26 26 4 10 9 18 13 16 4 -2 24 14 44 35 20 21 35 38 33 38 -2 0 19 23 46 50
27 28 54 50 61 50 6 0 9 3 6 6 -8 7 40 54 55 54 8 0 8 3 -1 9 -10 6 -7 10 12
15 15 4 24 11 21 16 -3 5 4 12 16 15 11 4 18 9 15 12 -7 7 32 44 82 77 23 16
42 32 42 37 0 5 7 6 14 3 8 -3 22 0 31 8 9 7 21 18 28 23 7 6 19 10 27 10 8
-1 24 2 35 6 25 10 49 11 68 3z m-862 -110 c-5 -16 -13 -28 -19 -27 -6 2 -9
-3 -7 -10 9 -24 -73 -96 -95 -82 -5 3 -10 3 -10 -2 0 -4 -20 -8 -45 -9 -25 0
-45 3 -45 7 0 4 -17 9 -37 11 -22 2 -37 8 -36 14 1 7 -6 10 -17 7 -16 -4 -19
-2 -14 11 4 10 13 15 20 12 8 -3 14 -2 14 3 0 4 7 8 15 8 12 0 12 -3 2 -16
-11 -14 -10 -15 7 -1 11 8 26 15 35 15 9 0 21 3 26 6 6 4 20 5 32 4 13 -1 21
1 18 4 -7 6 58 36 86 40 5 0 7 6 4 11 -3 6 1 10 10 10 10 0 13 5 9 12 -5 7 -2
9 9 5 9 -3 18 1 22 11 11 29 25 -10 16 -44z m3217 -72 c15 -15 34 -28 42 -30
8 -2 18 -8 21 -14 4 -6 11 -8 17 -4 6 3 13 2 17 -4 3 -5 17 -10 30 -10 13 0
27 -5 30 -10 4 -7 12 -7 25 0 13 7 21 7 25 0 4 -6 10 -8 15 -5 5 3 11 1 15 -5
4 -6 11 -7 17 -4 6 4 8 2 4 -4 -3 -5 0 -13 6 -16 7 -3 1 -3 -14 -1 -19 2 -28
-1 -28 -10 0 -8 -8 -14 -17 -14 -10 0 -46 -2 -80 -4 -44 -4 -63 -2 -63 6 0 7
-5 5 -10 -3 -8 -13 -10 -12 -10 3 0 10 -4 15 -10 12 -5 -3 -21 5 -35 19 -14
15 -22 26 -18 26 4 1 -3 7 -17 15 -14 8 -19 14 -11 15 11 0 10 4 -4 13 -11 9
-15 19 -10 27 4 7 2 16 -5 20 -7 4 -9 13 -6 19 9 14 37 0 74 -37z m-2013 -582
c0 -1 25 -3 55 -5 61 -4 146 -32 185 -61 22 -17 23 -19 7 -25 -9 -4 -22 -3
-27 2 -6 4 -32 9 -58 10 -26 2 -47 5 -47 8 0 4 -21 6 -47 6 -27 -1 -54 3 -60
8 -9 6 -13 5 -13 -2 0 -7 -4 -10 -9 -7 -14 9 -139 24 -238 28 -36 1 -54 7 -58
17 -3 9 -3 12 1 8 4 -4 13 -2 21 4 10 9 13 8 13 -1 0 -10 3 -10 15 0 10 8 15
9 15 2 0 -8 9 -8 30 0 17 5 36 8 44 5 7 -3 18 -2 23 1 9 6 148 7 148 2z m820
0 c0 -1 27 -2 60 -3 33 -1 66 -6 73 -10 7 -5 12 -4 12 3 0 7 10 6 28 -3 15 -8
41 -14 57 -13 17 1 44 -4 60 -11 17 -6 45 -10 62 -9 18 1 30 0 27 -3 -2 -3 8
-10 23 -17 21 -8 32 -8 42 0 11 8 13 8 7 -1 -4 -8 -1 -13 8 -13 36 0 13 -17
-25 -18 -27 -1 -38 2 -33 9 4 8 1 8 -12 1 -28 -15 -36 -15 -45 0 -7 10 -9 10
-9 0 0 -7 -5 -10 -10 -7 -6 4 -7 11 -4 17 4 6 0 6 -13 -1 -11 -6 -22 -8 -25
-6 -11 12 -454 28 -472 17 -8 -4 -40 -8 -138 -15 -16 -1 -28 -5 -28 -9 0 -4
-7 -5 -15 -2 -25 10 -17 19 40 46 30 14 52 20 49 14 -3 -6 0 -4 8 4 17 19 27
21 116 25 41 2 75 5 77 7 3 3 80 1 80 -2z m-2210 -59 c6 -1 3 -6 -5 -11 -8 -5
-11 -10 -7 -10 5 0 -8 -15 -28 -32 -20 -18 -50 -45 -66 -59 -29 -26 -49 -94
-25 -86 6 2 24 0 40 -4 22 -7 32 -5 41 8 11 14 14 13 28 -8 10 -13 17 -18 17
-12 0 7 9 10 20 8 11 -2 20 0 20 5 0 12 25 7 46 -10 11 -9 15 -10 10 -2 -4 7
-1 12 8 12 9 0 16 -6 16 -12 0 -8 3 -9 8 -3 9 13 63 14 55 1 -4 -5 -1 -6 8 0
20 12 189 12 181 -1 -3 -5 1 -5 9 1 16 13 47 12 68 -1 10 -5 12 -4 7 3 -10 16
7 15 23 0 8 -7 11 -8 8 -3 -3 6 3 11 13 11 10 0 16 -5 12 -11 -3 -5 2 -4 11 4
9 7 17 10 17 5 0 -5 15 -10 33 -11 50 -4 57 -6 57 -16 0 -5 -6 -7 -14 -4 -8 3
-16 1 -19 -6 -4 -13 -57 -18 -72 -7 -23 16 -44 19 -38 4 7 -19 -7 -18 -22 3
-9 13 -14 13 -20 3 -5 -9 -4 -11 3 -6 7 4 12 2 12 -3 0 -14 -17 -14 -25 -1 -3
6 -11 10 -16 10 -6 0 -7 -6 -3 -12 6 -9 3 -9 -9 1 -9 7 -24 11 -32 7 -9 -3
-13 -2 -10 3 3 6 -6 8 -21 7 -14 -2 -29 -8 -34 -15 -5 -10 -9 -9 -13 4 -5 10
-3 14 5 9 7 -5 8 -3 3 6 -6 10 -11 9 -21 -4 -9 -13 -13 -14 -16 -4 -4 10 -9
10 -23 -2 -10 -8 -16 -10 -12 -3 4 6 3 14 -3 18 -5 3 -10 -2 -11 -12 0 -10 -3
-13 -6 -5 -2 6 -11 12 -19 12 -9 0 -12 -5 -8 -12 5 -7 3 -8 -6 -3 -8 5 -32 9
-54 10 -23 0 -47 5 -55 9 -8 5 -12 5 -8 0 6 -10 -135 -10 -152 0 -6 4 -11 2
-11 -5 0 -8 -3 -9 -13 0 -8 6 -17 8 -20 5 -11 -11 -227 -10 -227 1 0 7 -3 7
-8 0 -11 -15 -71 -14 -65 1 4 11 61 37 72 33 2 0 9 7 14 16 8 14 11 15 18 4 7
-11 9 -10 9 4 0 10 8 17 21 17 11 0 17 5 14 10 -5 9 15 15 38 11 4 0 7 4 7 11
0 6 3 8 7 5 3 -4 18 6 33 21 15 15 33 28 40 30 8 2 26 12 42 23 15 11 28 17
28 12 0 -4 4 -3 8 2 12 16 46 33 62 29 8 -1 20 -3 25 -3z m1810 -141 c-8 -9
-12 -20 -8 -24 5 -4 1 -7 -7 -5 -8 2 -25 -2 -36 -9 -19 -10 -26 -8 -50 16 -15
15 -24 21 -20 15 9 -15 0 -18 -9 -3 -9 15 26 25 90 26 52 1 55 0 40 -16z"/>
<path d="M1234 3698 c-4 -6 -3 -8 4 -4 6 3 12 -3 14 -16 3 -21 4 -21 21 -3 15
14 16 20 5 26 -18 12 -36 11 -44 -3z"/>
<path d="M989 3065 c0 0 -2 -8 -4 -18 -2 -12 1 -17 10 -14 7 3 16 2 21 -3 5
-5 10 1 10 15 1 17 -3 23 -17 22 -10 -1 -19 -1 -20 -2z"/>
<path d="M4193 2595 c4 -9 3 -13 -2 -10 -5 3 -12 1 -15 -4 -9 -14 3 -38 19
-38 8 0 12 4 9 8 -2 4 2 14 10 21 12 13 11 16 -6 27 -18 11 -20 11 -15 -4z"/>
<path d="M4257 2556 c-13 -10 -15 -16 -7 -21 9 -6 9 -10 -1 -16 -8 -5 -9 -9
-3 -9 5 0 19 7 30 16 13 11 15 17 6 20 -6 3 -10 10 -6 15 7 12 2 11 -19 -5z"/>
<path d="M1370 30 c0 -5 5 -10 11 -10 5 0 7 5 4 10 -3 6 -8 10 -11 10 -2 0 -4
-4 -4 -10z"/>
</g>
</svg>
